<svg width="800" height="800" viewBox="0 0 800 800" fill="none" xmlns="http://www.w3.org/2000/svg">
<path d="M400 733.333C584.095 733.333 733.333 584.095 733.333 400C733.333 215.905 584.095 66.6667 400 66.6667C215.905 66.6667 66.6667 215.905 66.6667 400C66.6667 584.095 215.905 733.333 400 733.333Z" fill="#DFE2E3"/>
<path d="M248.703 600.002V376.83L248.511 376.673L248.703 600.002Z" fill="#C5221F"/>
<path d="M248.511 213.11V376.677L248.703 376.835V213.268L248.511 213.11Z" fill="#C5221F"/>
<path d="M523.042 257.996L401.189 353.092L276.551 257.996V258.022L276.701 258.15V391.31L399.785 488.461L523.042 395.061V257.996Z" fill="#EA4335"/>
<path d="M555.028 234.864L523.028 257.995V395.061L623.722 317.752V271.18C623.722 271.18 611.501 204.665 555.028 234.864Z" fill="#FBBC05"/>
<path d="M523.028 395.061V572.839H600.205C600.205 572.839 622.167 570.578 623.747 545.544V317.752L523.028 395.061Z" fill="#34A853"/>
<path d="M276.545 258.018L244.72 235.015C188.248 204.816 176 271.306 176 271.306V317.876L276.545 391.178V258.018Z" fill="#C5221F"/>
<path d="M176 317.911V545.703C177.556 570.763 199.542 573 199.542 573H276.72L276.545 391.186L176 317.911Z" fill="#4285F4"/>
</svg>
